<svg id="圖層_1" data-name="圖層 1" xmlns="http://www.w3.org/2000/svg" viewBox="0 0 2829.51705 1130.29004"><defs><style>.cls-1,.cls-4,.cls-5,.cls-9{fill:none;}.cls-1,.cls-2,.cls-4{stroke:#000;}.cls-1,.cls-2,.cls-4,.cls-5,.cls-6,.cls-7,.cls-9{stroke-miterlimit:10;}.cls-1,.cls-9{stroke-width:15px;}.cls-2{font-size:99.46489px;}.cls-2,.cls-6,.cls-7{stroke-width:3px;font-family:AdobeMingStd-Light-B5pc-H, Adobe Ming Std;}.cls-3{font-size:50px;}.cls-5,.cls-6,.cls-7,.cls-9{stroke:blue;}.cls-5{stroke-width:20px;}.cls-6,.cls-7{font-size:70px;}.cls-7,.cls-8{fill:blue;}</style></defs><path d="M2905,601v732H442V601H2905m15-15H427v762H2920V586Z" transform="translate(-97.62695 -217.70996)"/><path class="cls-1" d="M411.5,705.5" transform="translate(-97.62695 -217.70996)"/><path class="cls-1" d="M352.5,667.5a102.28035,102.28035,0,0,1,16-35c19.71747-27.60434,47.74237-37.08241,58-40" transform="translate(-97.62695 -217.70996)"/><path class="cls-1" d="M368.5,1267.5c.48047,5.93329,3.15234,30.56219,24,50a77.23032,77.23032,0,0,0,44,20" transform="translate(-97.62695 -217.70996)"/><text x="-97.62695" y="-217.70996"/><text class="cls-2" transform="translate(45.49756 848.81934) scale(1.00538 1)">Band<tspan class="cls-3"><tspan x="36.34645" y="60">M=224</tspan></tspan></text><path d="M428.66667,592.16667a1.5009,1.5009,0,0,0,0-3,1.5009,1.5009,0,0,0,0,3Z" transform="translate(-97.62695 -217.70996)"/><path class="cls-4" d="M428.66667,590.66667" transform="translate(-97.62695 -217.70996)"/><path class="cls-1" d="M436.61494,592.20884a102.28027,102.28027,0,0,1,16-35c19.71747-27.60434,47.74237-37.08242,58-40" transform="translate(-97.62695 -217.70996)"/><path class="cls-1" d="M1803.5,586.5" transform="translate(-97.62695 -217.70996)"/><path class="cls-1" d="M1706.5,530.5" transform="translate(-97.62695 -217.70996)"/><path class="cls-1" d="M2920,619a82.811,82.811,0,0,0-18.46163-31.16921c-22.75105-24.583-55.08764-33.0237-66.92343-35.62195" transform="translate(-97.62695 -217.70996)"/><text class="cls-2" transform="translate(1305.83765 89.03003) scale(1.00538 1)">Pixel<tspan class="cls-3"><tspan x="20.5734" y="60">L=10000</tspan></tspan></text><text x="-97.62695" y="-217.70996"/><rect class="cls-5" x="354.37305" y="392.29004" width="308" height="595"/><text class="cls-6" transform="translate(384.97803 726.29004)">Missing<tspan x="41.54443" y="84" xml:space="preserve"> Data</tspan></text><rect class="cls-5" x="352.37305" y="1042.29004" width="310" height="62"/><text class="cls-7" transform="translate(1.5 1104.53613)">223:224</text><text class="cls-7" transform="translate(55.65308 645.90091)">1:220</text><text class="cls-7" transform="translate(643.96313 239.90091)"><tspan xml:space="preserve"> 1767:2500 , 2710:2722 ,2800:3500 , </tspan><tspan x="70.38281" y="84" xml:space="preserve">3520 , 3545:3596 , 3600 , 3710  </tspan></text><text class="cls-7" transform="translate(1947.63013 312.90042)">3800:10000</text><polygon class="cls-5" points="2796.386 978.629 1426.172 984.634 1422.762 393.275 2802.055 384.863 2796.386 978.629"/><polygon class="cls-5" points="2802.373 1039.29 1427.373 1038.29 1427.373 1105.29 2802.373 1105.29 2802.373 1039.29"/><text class="cls-7" transform="translate(430.5701 312.76986)">1:1702</text><text class="cls-6" transform="translate(1990.63892 690.77036)">Missing<tspan x="41.54443" y="84" xml:space="preserve"> Data</tspan></text><path class="cls-8" d="M944,616v584H800V616H944m15-15H785v614H959V601Z" transform="translate(-97.62695 -217.70996)"/><path class="cls-8" d="M944,1263.09949v52.84875l-144,.95227v-52.84875l144-.95227M959,1248l-174,1.15063V1332l174-1.15063V1248Z" transform="translate(-97.62695 -217.70996)"/><path class="cls-8" d="M1034,616v584H998V616h36m15-15H983v614h66V601Z" transform="translate(-97.62695 -217.70996)"/><path class="cls-8" d="M1034,1263v54H998v-54h36m15-15H983v84h66v-84Z" transform="translate(-97.62695 -217.70996)"/><path class="cls-8" d="M1179,616v584H1075V616h104m15-15H1060v614h134V601Z" transform="translate(-97.62695 -217.70996)"/><path class="cls-8" d="M1179,1263v54H1075v-54h104m15-15H1060v84h134v-84Z" transform="translate(-97.62695 -217.70996)"/><path class="cls-8" d="M1415,617v583H1294V617h121m15-15H1279v613h151V602Z" transform="translate(-97.62695 -217.70996)"/><path class="cls-8" d="M1415,1263v54H1294v-54h121m15-15H1279v84h151v-84Z" transform="translate(-97.62695 -217.70996)"/><line class="cls-9" x1="1139.03262" y1="383.29004" x2="1139.03262" y2="997.29004"/><line class="cls-9" x1="1139.03262" y1="1030.29004" x2="1139.03262" y2="1114.29004"/><line class="cls-9" x1="1354.87305" y1="382.29004" x2="1361.87305" y2="997.29004"/><line class="cls-9" x1="1361.87305" y1="1030.29004" x2="1361.87305" y2="1114.29004"/><line class="cls-9" x1="1393.87305" y1="383.29004" x2="1400.87305" y2="996.29004"/><line class="cls-9" x1="1399.87305" y1="1030.29004" x2="1399.87305" y2="1114.29004"/></svg>