<svg xmlns="http://www.w3.org/2000/svg" viewBox="0 0 3000 1500"><defs><style>.cls-1{fill:#fff;}.cls-11,.cls-2,.cls-5,.cls-7,.cls-9{fill:none;}.cls-2,.cls-3,.cls-5,.cls-6{stroke:#000;}.cls-10,.cls-11,.cls-13,.cls-14,.cls-2,.cls-3,.cls-5,.cls-6,.cls-7,.cls-8,.cls-9{stroke-miterlimit:10;}.cls-2{stroke-width:15px;}.cls-3,.cls-6{font-size:99.46489px;}.cls-10,.cls-13,.cls-3,.cls-6,.cls-8{stroke-width:3px;font-family:AdobeMingStd-Light-B5pc-H, Adobe Ming Std;}.cls-4{font-size:50px;}.cls-12,.cls-6{fill:blue;}.cls-7,.cls-8{stroke:blue;}.cls-11,.cls-14,.cls-7,.cls-9{stroke-width:20px;}.cls-10,.cls-8{font-size:70px;}.cls-10,.cls-13,.cls-14,.cls-9{stroke:#f0f;}.cls-10,.cls-13,.cls-14{fill:#f0f;}.cls-11{stroke:#f7931e;}.cls-13{font-size:100px;}</style></defs><g id="圖層_2" data-name="圖層 2"><rect class="cls-1" width="3000" height="1500"/></g><g id="圖層_1" data-name="圖層 1"><path d="M1849.1051,520.55408v732h-1354v-732h1354m15-15h-1384v762h1384v-762Z"/><path class="cls-2" d="M464.60511,625.05411"/><path class="cls-2" d="M405.60511,587.05411a102.28035,102.28035,0,0,1,16-35c19.71747-27.60434,47.74237-37.08241,58-40"/><path class="cls-2" d="M421.60511,1187.05411c.48047,5.93329,3.15234,30.5622,24,50a77.23034,77.23034,0,0,0,44,20"/><text/><text class="cls-3" transform="translate(161.22961 911.0834) scale(1.00538 1)">Band<tspan class="cls-4"><tspan x="36.34645" y="60">M=224</tspan></tspan></text><path d="M481.77178,511.72078a1.5009,1.5009,0,0,0,0-3,1.5009,1.5009,0,0,0,0,3Z"/><path class="cls-5" d="M481.77178,510.22078"/><path class="cls-2" d="M489.72006,511.763a102.27989,102.27989,0,0,1,16-35c19.71746-27.60434,47.74237-37.08242,58-40"/><path class="cls-2" d="M1856.60511,506.05411"/><path class="cls-2" d="M1759.60511,450.05411"/><path class="cls-2" d="M1859.10511,511.55411a82.811,82.811,0,0,0-18.46163-31.16921c-22.751-24.583-55.08764-33.0237-66.92342-35.622"/><text class="cls-6" transform="translate(1055.5697 370.2941) scale(1.00538 1)">Pixel<tspan class="cls-4"><tspan x="20.5734" y="60">L=10000</tspan></tspan></text><text/><rect class="cls-7" x="503.10511" y="915.55411" width="642" height="327"/><text class="cls-8" transform="translate(607.4386 1098.55411)">Missing Data</text><rect class="cls-9" x="1158.60511" y="527.55411" width="681.5" height="715"/><text class="cls-10"><tspan x="1365.77209" y="878.88712">Step1取</tspan><tspan x="1365.77209" y="962.88712">Y_Omega</tspan></text><text/><path class="cls-11" d="M503.10511,896.55411"/><path class="cls-11" d="M505.10511,529.75415"/><path class="cls-11" d="M1724.10511,558.55411"/><path class="cls-11" d="M1722.10511,925.35407"/><text/><path d="M2582.49292,525.28271v731.06116l-251.75854.89356V525.29053c86.79541,0,173.15551-.00037,251.75854-.00782m15-15.00149c-87.00952.00934-184.384.00934-281.75854.00934v762.00009l281.75854-1V510.28122Z"/><path class="cls-2" d="M2218.2343,621.79062"/><path class="cls-2" d="M2248.2343,591.79062a102.28035,102.28035,0,0,1,16-35c19.71747-27.60434,47.74237-37.08241,58-40"/><path class="cls-2" d="M2251.2343,1194.79062c.48047,5.93329,3.15234,30.5622,24,50a77.23025,77.23025,0,0,0,44,20"/><text/><text class="cls-3" transform="translate(2013.69312 894.66422) scale(1.00538 1)">Band<tspan class="cls-4"><tspan x="36.34645" y="60">M=224</tspan></tspan></text><path class="cls-2" d="M2323.34924,518.49946a100.67029,100.67029,0,0,1,8.46351-27.14964c10.42994-21.4128,25.25425-28.765,30.68022-31.02816"/><path class="cls-2" d="M2587.7343,510.29062a79.09222,79.09222,0,0,0-11.72786-26.58551c-14.45272-20.96788-34.99472-28.16729-42.51347-30.38345"/><text class="cls-6" transform="translate(2339.19897 372.03061) scale(1.00538 1)">Pixel<tspan class="cls-4"><tspan x="70.87261" y="60">L=3</tspan></tspan></text><text/><path class="cls-9" d="M2868.2343,1228.29062"/><path class="cls-12" d="M2576.22537,980.82166"/><path class="cls-12" d="M2322.993,980.82166"/><text class="cls-13"><tspan x="2263.82642" y="1072.32166">Material</tspan><tspan x="2263.82642" y="1192.32166">Signature</tspan></text><polyline class="cls-14" points="1930.493 1098.607 2124.664 1098.607 2151.715 1098.607"/><path class="cls-14" d="M2145.24664,1045.01155a35.74049,35.74049,0,0,1-6.32892-6.37378c-.18616-.25116-.35926-.50482-.538-.75757l-2.88678-2.99805.11267,128.22535,61.62171-64.11268Z"/></g></svg>