<svg xmlns="http://www.w3.org/2000/svg" viewBox="0 0 3019.43864 1500"><defs><style>.cls-1{fill:#fff;}.cls-11,.cls-15,.cls-2,.cls-5,.cls-7,.cls-9{fill:none;}.cls-2,.cls-3,.cls-5,.cls-6{stroke:#000;}.cls-10,.cls-11,.cls-12,.cls-15,.cls-16,.cls-2,.cls-3,.cls-5,.cls-6,.cls-7,.cls-8,.cls-9{stroke-miterlimit:10;}.cls-2{stroke-width:15px;}.cls-3,.cls-6{font-size:99.46489px;}.cls-10,.cls-12,.cls-3,.cls-6,.cls-8{stroke-width:3px;font-family:AdobeMingStd-Light-B5pc-H, Adobe Ming Std;}.cls-4{font-size:50px;}.cls-14,.cls-6{fill:blue;}.cls-15,.cls-7,.cls-8{stroke:blue;}.cls-11,.cls-15,.cls-16,.cls-7,.cls-9{stroke-width:20px;}.cls-10,.cls-12,.cls-8{font-size:70px;}.cls-10,.cls-13,.cls-16,.cls-9{stroke:#f0f;}.cls-10,.cls-13,.cls-16{fill:#f0f;}.cls-11,.cls-12{stroke:#f7931e;}.cls-12{fill:#f7931e;}.cls-15{stroke-dasharray:42.64648 42.64648;}</style></defs><g id="圖層_2" data-name="圖層 2"><rect class="cls-1" width="3000" height="1500"/></g><g id="圖層_1" data-name="圖層 1"><path d="M1738.1051,567.55408v732h-1354v-732h1354m15-15h-1384v762h1384v-762Z"/><path class="cls-2" d="M353.60511,672.05411"/><path class="cls-2" d="M294.60511,634.05411a102.28035,102.28035,0,0,1,16-35c19.71747-27.60434,47.74237-37.08241,58-40"/><path class="cls-2" d="M310.60511,1234.05411c.48047,5.93329,3.15234,30.5622,24,50a77.23034,77.23034,0,0,0,44,20"/><text/><text class="cls-3" transform="translate(106.22961 949.0834) scale(1.00538 1)">Band<tspan class="cls-4"><tspan x="36.34645" y="60">M=224</tspan></tspan></text><path d="M370.77178,558.72078a1.5009,1.5009,0,0,0,0-3,1.5009,1.5009,0,0,0,0,3Z"/><path class="cls-5" d="M370.77178,557.22078"/><path class="cls-2" d="M378.72006,558.763a102.27989,102.27989,0,0,1,16-35c19.71746-27.60434,47.74237-37.08242,58-40"/><path class="cls-2" d="M1745.60511,553.05411"/><path class="cls-2" d="M1648.60511,497.05411"/><path class="cls-2" d="M1748.10511,558.55411a82.811,82.811,0,0,0-18.46163-31.16921c-22.751-24.583-55.08764-33.0237-66.92342-35.622"/><text class="cls-6" transform="translate(944.5697 402.2941) scale(1.00538 1)">Pixel<tspan class="cls-4"><tspan x="20.5734" y="60">L=10000</tspan></tspan></text><text/><rect class="cls-7" x="392.10511" y="962.55411" width="642" height="327"/><text class="cls-8" transform="translate(496.4386 1145.55411)">Missing Data</text><rect class="cls-9" x="1047.60511" y="574.55411" width="681.5" height="715"/><text class="cls-10"><tspan x="1253.77209" y="1046.88712">Step1取</tspan><tspan x="1253.77209" y="1130.88712">Y_Omega</tspan></text><text/><polygon class="cls-11" points="1731 574.554 394.105 576.754 392.105 943.554 1729 941.354 1731 574.554"/><text class="cls-12" transform="translate(628.9762 734.11954)">Step2取<tspan x="0" y="84">Y_Omega2</tspan></text><text class="cls-12" transform="translate(1812.78857 669.64177)">+ A_Omega<tspan class="cls-13"><tspan x="0" y="84">(Step1所得A的Subset)</tspan></tspan></text><path d="M2856.19727,568.00153v706.04254l-251.75855.9021V568.00952c86.79541-.00006,173.15552-.00043,251.75855-.008m15-15.00153c-87.00953.00952-184.384.00952-281.75855.00952V1290l281.75855-1.00964V553Z"/><path class="cls-2" d="M2496.93864,671.57558"/><path class="cls-2" d="M2520.93864,641.57558a102.28035,102.28035,0,0,1,16-35c19.71747-27.60434,47.74238-37.08241,58-40"/><path class="cls-2" d="M2523.93864,1211.57558c.48047,5.93329,3.15235,30.56219,24,50a77.23034,77.23034,0,0,0,44,20"/><text/><text class="cls-3" transform="translate(2316.56323 947.60487) scale(1.00538 1)">Band<tspan class="cls-4"><tspan x="36.34645" y="60">M=224</tspan></tspan></text><path class="cls-2" d="M2594.05359,560.28442a100.67029,100.67029,0,0,1,8.46351-27.14964c10.42993-21.4128,25.25425-28.765,30.68022-31.02816"/><path class="cls-2" d="M2863.43864,560.07558a79.0922,79.0922,0,0,0-11.72785-26.58552c-14.45272-20.96787-34.99472-28.16728-42.51347-30.38344"/><text class="cls-6" transform="translate(2604.90332 417.81558) scale(1.00538 1)">Pixel<tspan class="cls-4"><tspan x="70.87261" y="60">L=3</tspan></tspan></text><text/><line class="cls-14" x1="2603.69732" y1="961" x2="2856.92971" y2="961"/><line class="cls-7" x1="2603.69727" y1="961" x2="2623.69727" y2="961"/><line class="cls-15" x1="2666.34375" y1="961" x2="2815.60645" y2="961"/><line class="cls-7" x1="2836.92969" y1="961" x2="2856.92969" y2="961"/><polygon class="cls-11" points="2847 944 2615 944 2614 576 2846 576 2847 944"/><polyline class="cls-16" points="1851.697 1151.607 2291.777 1151.607 2353.085 1151.607"/><path class="cls-16" d="M2362.75366,1098.01067a35.74082,35.74082,0,0,1-6.32892-6.37378c-.18615-.25116-.35925-.50482-.538-.75757l-2.88678-2.998.11267,128.22535,61.62171-64.11267Z"/></g></svg>