<svg xmlns="http://www.w3.org/2000/svg" viewBox="0 0 3000 1500"><defs><style>.cls-1{fill:#fff;}.cls-10,.cls-2,.cls-5,.cls-6{fill:none;}.cls-2,.cls-3,.cls-5{stroke:#000;}.cls-10,.cls-2,.cls-3,.cls-5,.cls-6,.cls-7,.cls-8{stroke-miterlimit:10;}.cls-10,.cls-2{stroke-width:15px;}.cls-3{font-size:99.46489px;}.cls-3,.cls-7,.cls-8{stroke-width:3px;font-family:AdobeMingStd-Light-B5pc-H, Adobe Ming Std;}.cls-4{font-size:50px;}.cls-10,.cls-6,.cls-7,.cls-8{stroke:blue;}.cls-6{stroke-width:20px;}.cls-7,.cls-8{font-size:70px;}.cls-8,.cls-9{fill:blue;}</style></defs><g id="圖層_2" data-name="圖層 2"><rect class="cls-1" width="3000" height="1500"/></g><g id="圖層_1" data-name="圖層 1"><path d="M2905,601v732H442V601H2905m15-15H427v762H2920V586Z"/><path class="cls-2" d="M411.5,705.5"/><path class="cls-2" d="M352.5,667.5a102.28035,102.28035,0,0,1,16-35c19.71747-27.60434,47.74237-37.08241,58-40"/><path class="cls-2" d="M368.5,1267.5c.48047,5.93329,3.15234,30.56219,24,50a77.23032,77.23032,0,0,0,44,20"/><text/><text class="cls-3" transform="translate(143.12451 1066.5293) scale(1.00538 1)">Band<tspan class="cls-4"><tspan x="36.34645" y="60">M=224</tspan></tspan></text><path d="M428.66667,592.16667a1.5009,1.5009,0,0,0,0-3,1.5009,1.5009,0,0,0,0,3Z"/><path class="cls-5" d="M428.66667,590.66667"/><path class="cls-2" d="M436.61494,592.20884a102.28027,102.28027,0,0,1,16-35c19.71747-27.60434,47.74237-37.08242,58-40"/><path class="cls-2" d="M1803.5,586.5"/><path class="cls-2" d="M1706.5,530.5"/><path class="cls-2" d="M2920,619a82.811,82.811,0,0,0-18.46163-31.16921c-22.75105-24.583-55.08764-33.0237-66.92343-35.62195"/><text class="cls-3" transform="translate(1403.4646 306.73999) scale(1.00538 1)">Pixel<tspan class="cls-4"><tspan x="20.5734" y="60">L=10000</tspan></tspan></text><text/><rect class="cls-6" x="452" y="610" width="308" height="595"/><text class="cls-7" transform="translate(482.60498 944)">Missing<tspan x="41.54443" y="84" xml:space="preserve"> Data</tspan></text><rect class="cls-6" x="450" y="1260" width="310" height="62"/><text class="cls-8" transform="translate(99.12695 1322.24609)">223:224</text><text class="cls-8" transform="translate(153.28003 863.61087)">1:220</text><text class="cls-8" transform="translate(741.59009 457.61087)"><tspan xml:space="preserve"> 1767:2500 , 2710:2722 ,2800:3500 , </tspan><tspan x="70.38281" y="84" xml:space="preserve">3520 , 3545:3596 , 3600 , 3710  </tspan></text><text class="cls-8" transform="translate(2045.25708 530.61038)">3800:10000</text><polygon class="cls-6" points="2894.013 1196.339 1523.799 1202.344 1520.389 610.984 2899.681 602.573 2894.013 1196.339"/><polygon class="cls-6" points="2900 1257 1525 1256 1525 1323 2900 1323 2900 1257"/><text class="cls-8" transform="translate(528.19705 530.47982)">1:1702</text><text class="cls-7" transform="translate(2088.26587 908.48032)">Missing<tspan x="41.54443" y="84" xml:space="preserve"> Data</tspan></text><path class="cls-9" d="M944,616v584H800V616H944m15-15H785v614H959V601Z"/><path class="cls-9" d="M944,1263.09949v52.84875l-144,.95227v-52.84875l144-.95227M959,1248l-174,1.15063V1332l174-1.15063V1248Z"/><path class="cls-9" d="M1034,616v584H998V616h36m15-15H983v614h66V601Z"/><path class="cls-9" d="M1034,1263v54H998v-54h36m15-15H983v84h66v-84Z"/><path class="cls-9" d="M1179,616v584H1075V616h104m15-15H1060v614h134V601Z"/><path class="cls-9" d="M1179,1263v54H1075v-54h104m15-15H1060v84h134v-84Z"/><path class="cls-9" d="M1415,617v583H1294V617h121m15-15H1279v613h151V602Z"/><path class="cls-9" d="M1415,1263v54H1294v-54h121m15-15H1279v84h151v-84Z"/><line class="cls-10" x1="1236.65957" y1="601" x2="1236.65957" y2="1215"/><line class="cls-10" x1="1236.65957" y1="1248" x2="1236.65957" y2="1332"/><line class="cls-10" x1="1452.5" y1="600" x2="1459.5" y2="1215"/><line class="cls-10" x1="1459.5" y1="1248" x2="1459.5" y2="1332"/><line class="cls-10" x1="1491.5" y1="601" x2="1498.5" y2="1214"/><line class="cls-10" x1="1497.5" y1="1248" x2="1497.5" y2="1332"/></g></svg>