<svg id="圖層_1" data-name="圖層 1" xmlns="http://www.w3.org/2000/svg" viewBox="0 0 2914.70915 1001.28992"><defs><style>.cls-1,.cls-10,.cls-14,.cls-4,.cls-6,.cls-8{fill:none;}.cls-1,.cls-2,.cls-4,.cls-5{stroke:#000;}.cls-1,.cls-10,.cls-11,.cls-14,.cls-15,.cls-2,.cls-4,.cls-5,.cls-6,.cls-7,.cls-8,.cls-9{stroke-miterlimit:10;}.cls-1{stroke-width:15px;}.cls-2,.cls-5{font-size:99.46489px;}.cls-11,.cls-2,.cls-5,.cls-7,.cls-9{stroke-width:3px;font-family:AdobeMingStd-Light-B5pc-H, Adobe Ming Std;}.cls-3{font-size:50px;}.cls-13,.cls-5{fill:blue;}.cls-14,.cls-6,.cls-7{stroke:blue;}.cls-10,.cls-14,.cls-15,.cls-6,.cls-8{stroke-width:20px;}.cls-11,.cls-7,.cls-9{font-size:70px;}.cls-12,.cls-15,.cls-8,.cls-9{stroke:#f0f;}.cls-12,.cls-15,.cls-9{fill:#f0f;}.cls-10,.cls-11{stroke:#f7931e;}.cls-11{fill:#f7931e;}.cls-14{stroke-dasharray:42.64648 42.64648;}</style></defs><path d="M1738.1051,567.55408v732h-1354v-732h1354m15-15h-1384v762h1384v-762Z" transform="translate(-104.72949 -313.26416)"/><path class="cls-1" d="M353.60511,672.05411" transform="translate(-104.72949 -313.26416)"/><path class="cls-1" d="M294.60511,634.05411a102.28035,102.28035,0,0,1,16-35c19.71747-27.60434,47.74237-37.08241,58-40" transform="translate(-104.72949 -313.26416)"/><path class="cls-1" d="M310.60511,1234.05411c.48047,5.93329,3.15234,30.5622,24,50a77.23034,77.23034,0,0,0,44,20" transform="translate(-104.72949 -313.26416)"/><text x="-104.72949" y="-313.26416"/><text class="cls-2" transform="translate(1.50012 635.81924) scale(1.00538 1)">Band<tspan class="cls-3"><tspan x="36.34645" y="60">M=224</tspan></tspan></text><path d="M370.77178,558.72078a1.5009,1.5009,0,0,0,0-3,1.5009,1.5009,0,0,0,0,3Z" transform="translate(-104.72949 -313.26416)"/><path class="cls-4" d="M370.77178,557.22078" transform="translate(-104.72949 -313.26416)"/><path class="cls-1" d="M378.72006,558.763a102.27989,102.27989,0,0,1,16-35c19.71746-27.60434,47.74237-37.08242,58-40" transform="translate(-104.72949 -313.26416)"/><path class="cls-1" d="M1745.60511,553.05411" transform="translate(-104.72949 -313.26416)"/><path class="cls-1" d="M1648.60511,497.05411" transform="translate(-104.72949 -313.26416)"/><path class="cls-1" d="M1748.10511,558.55411a82.811,82.811,0,0,0-18.46163-31.16921c-22.751-24.583-55.08764-33.0237-66.92342-35.622" transform="translate(-104.72949 -313.26416)"/><text class="cls-5" transform="translate(839.84021 89.02994) scale(1.00538 1)">Pixel<tspan class="cls-3"><tspan x="20.5734" y="60">L=10000</tspan></tspan></text><text x="-104.72949" y="-313.26416"/><rect class="cls-6" x="287.37562" y="649.28995" width="642" height="327"/><text class="cls-7" transform="translate(391.70911 832.28995)">Missing Data</text><rect class="cls-8" x="942.87562" y="261.28995" width="681.5" height="715"/><text class="cls-9" x="-104.72949" y="-313.26416"><tspan x="1149.0426" y="733.62296">Step1取</tspan><tspan x="1149.0426" y="817.62296">Y_Omega</tspan></text><text x="-104.72949" y="-313.26416"/><polygon class="cls-10" points="1626.271 261.29 289.376 263.49 287.376 630.29 1624.271 628.09 1626.271 261.29"/><text class="cls-11" transform="translate(524.2467 420.85538)">Step2取<tspan x="0" y="84">Y_Omega2</tspan></text><text class="cls-11" transform="translate(1708.05908 356.37761)">+ A_Omega<tspan class="cls-12"><tspan x="0" y="84">(Step1所得A的Subset)</tspan></tspan></text><path d="M2856.19727,568.00153v706.04254l-251.75855.9021V568.00952c86.79541-.00006,173.15552-.00043,251.75855-.008m15-15.00153c-87.00953.00952-184.384.00952-281.75855.00952V1290l281.75855-1.00964V553Z" transform="translate(-104.72949 -313.26416)"/><path class="cls-1" d="M2496.93864,671.57558" transform="translate(-104.72949 -313.26416)"/><path class="cls-1" d="M2520.93864,641.57558a102.28035,102.28035,0,0,1,16-35c19.71747-27.60434,47.74238-37.08241,58-40" transform="translate(-104.72949 -313.26416)"/><path class="cls-1" d="M2523.93864,1211.57558c.48047,5.93329,3.15235,30.56219,24,50a77.23034,77.23034,0,0,0,44,20" transform="translate(-104.72949 -313.26416)"/><text x="-104.72949" y="-313.26416"/><text class="cls-2" transform="translate(2211.83374 634.34071) scale(1.00538 1)">Band<tspan class="cls-3"><tspan x="36.34645" y="60">M=224</tspan></tspan></text><path class="cls-1" d="M2594.05359,560.28442a100.67029,100.67029,0,0,1,8.46351-27.14964c10.42993-21.4128,25.25425-28.765,30.68022-31.02816" transform="translate(-104.72949 -313.26416)"/><path class="cls-1" d="M2863.43864,560.07558a79.0922,79.0922,0,0,0-11.72785-26.58552c-14.45272-20.96787-34.99472-28.16728-42.51347-30.38344" transform="translate(-104.72949 -313.26416)"/><text class="cls-5" transform="translate(2500.17383 104.55142) scale(1.00538 1)">Pixel<tspan class="cls-3"><tspan x="70.87261" y="60">L=3</tspan></tspan></text><text x="-104.72949" y="-313.26416"/><line class="cls-13" x1="2498.96783" y1="647.73584" x2="2752.20022" y2="647.73584"/><line class="cls-6" x1="2498.96777" y1="647.73584" x2="2518.96777" y2="647.73584"/><line class="cls-14" x1="2561.61426" y1="647.73584" x2="2710.87695" y2="647.73584"/><line class="cls-6" x1="2732.2002" y1="647.73584" x2="2752.2002" y2="647.73584"/><polygon class="cls-10" points="2742.271 630.736 2510.271 630.736 2509.271 262.736 2741.271 262.736 2742.271 630.736"/><polyline class="cls-15" points="1746.968 838.342 2187.047 838.342 2248.355 838.342"/><path class="cls-15" d="M2362.75366,1098.01067a35.74082,35.74082,0,0,1-6.32892-6.37378c-.18615-.25116-.35925-.50482-.538-.75757l-2.88678-2.998.11267,128.22535,61.62171-64.11267Z" transform="translate(-104.72949 -313.26416)"/></svg>