<svg id="圖層_1" data-name="圖層 1" xmlns="http://www.w3.org/2000/svg" viewBox="0 0 2651.29869 991.02649"><defs><style>.cls-1,.cls-10,.cls-4,.cls-6,.cls-8{fill:none;}.cls-1,.cls-2,.cls-4,.cls-5{stroke:#000;}.cls-1,.cls-10,.cls-12,.cls-13,.cls-2,.cls-4,.cls-5,.cls-6,.cls-7,.cls-8,.cls-9{stroke-miterlimit:10;}.cls-1{stroke-width:15px;}.cls-2,.cls-5{font-size:99.46489px;}.cls-12,.cls-2,.cls-5,.cls-7,.cls-9{stroke-width:3px;font-family:AdobeMingStd-Light-B5pc-H, Adobe Ming Std;}.cls-3{font-size:50px;}.cls-11,.cls-5{fill:blue;}.cls-6,.cls-7{stroke:blue;}.cls-10,.cls-13,.cls-6,.cls-8{stroke-width:20px;}.cls-7,.cls-9{font-size:70px;}.cls-12,.cls-13,.cls-8,.cls-9{stroke:#f0f;}.cls-12,.cls-13,.cls-9{fill:#f0f;}.cls-10{stroke:#f7931e;}.cls-12{font-size:100px;}</style></defs><path d="M1849.1051,520.55408v732h-1354v-732h1354m15-15h-1384v762h1384v-762Z" transform="translate(-159.72949 -281.26416)"/><path class="cls-1" d="M464.60511,625.05411" transform="translate(-159.72949 -281.26416)"/><path class="cls-1" d="M405.60511,587.05411a102.28035,102.28035,0,0,1,16-35c19.71747-27.60434,47.74237-37.08241,58-40" transform="translate(-159.72949 -281.26416)"/><path class="cls-1" d="M421.60511,1187.05411c.48047,5.93329,3.15234,30.5622,24,50a77.23034,77.23034,0,0,0,44,20" transform="translate(-159.72949 -281.26416)"/><text x="-159.72949" y="-281.26416"/><text class="cls-2" transform="translate(1.50012 629.81924) scale(1.00538 1)">Band<tspan class="cls-3"><tspan x="36.34645" y="60">M=224</tspan></tspan></text><path d="M481.77178,511.72078a1.5009,1.5009,0,0,0,0-3,1.5009,1.5009,0,0,0,0,3Z" transform="translate(-159.72949 -281.26416)"/><path class="cls-4" d="M481.77178,510.22078" transform="translate(-159.72949 -281.26416)"/><path class="cls-1" d="M489.72006,511.763a102.27989,102.27989,0,0,1,16-35c19.71746-27.60434,47.74237-37.08242,58-40" transform="translate(-159.72949 -281.26416)"/><path class="cls-1" d="M1856.60511,506.05411" transform="translate(-159.72949 -281.26416)"/><path class="cls-1" d="M1759.60511,450.05411" transform="translate(-159.72949 -281.26416)"/><path class="cls-1" d="M1859.10511,511.55411a82.811,82.811,0,0,0-18.46163-31.16921c-22.751-24.583-55.08764-33.0237-66.92342-35.622" transform="translate(-159.72949 -281.26416)"/><text class="cls-5" transform="translate(895.84021 89.02994) scale(1.00538 1)">Pixel<tspan class="cls-3"><tspan x="20.5734" y="60">L=10000</tspan></tspan></text><text x="-159.72949" y="-281.26416"/><rect class="cls-6" x="343.37562" y="634.28995" width="642" height="327"/><text class="cls-7" transform="translate(447.70911 817.28995)">Missing Data</text><rect class="cls-8" x="998.87562" y="246.28995" width="681.5" height="715"/><text class="cls-9" x="-159.72949" y="-281.26416"><tspan x="1206.0426" y="597.62296">Step1取</tspan><tspan x="1206.0426" y="681.62296">Y_Omega</tspan></text><text x="-159.72949" y="-281.26416"/><path class="cls-10" d="M503.10511,896.55411" transform="translate(-159.72949 -281.26416)"/><path class="cls-10" d="M505.10511,529.75415" transform="translate(-159.72949 -281.26416)"/><path class="cls-10" d="M1724.10511,558.55411" transform="translate(-159.72949 -281.26416)"/><path class="cls-10" d="M1722.10511,925.35407" transform="translate(-159.72949 -281.26416)"/><text x="-159.72949" y="-281.26416"/><path d="M2582.49292,525.28271v731.06116l-251.75854.89356V525.29053c86.79541,0,173.15551-.00037,251.75854-.00782m15-15.00149c-87.00952.00934-184.384.00934-281.75854.00934v762.00009l281.75854-1V510.28122Z" transform="translate(-159.72949 -281.26416)"/><path class="cls-1" d="M2218.2343,621.79062" transform="translate(-159.72949 -281.26416)"/><path class="cls-1" d="M2248.2343,591.79062a102.28035,102.28035,0,0,1,16-35c19.71747-27.60434,47.74237-37.08241,58-40" transform="translate(-159.72949 -281.26416)"/><path class="cls-1" d="M2251.2343,1194.79062c.48047,5.93329,3.15234,30.5622,24,50a77.23025,77.23025,0,0,0,44,20" transform="translate(-159.72949 -281.26416)"/><text x="-159.72949" y="-281.26416"/><text class="cls-2" transform="translate(1853.96362 613.40005) scale(1.00538 1)">Band<tspan class="cls-3"><tspan x="36.34645" y="60">M=224</tspan></tspan></text><path class="cls-1" d="M2323.34924,518.49946a100.67029,100.67029,0,0,1,8.46351-27.14964c10.42994-21.4128,25.25425-28.765,30.68022-31.02816" transform="translate(-159.72949 -281.26416)"/><path class="cls-1" d="M2587.7343,510.29062a79.09222,79.09222,0,0,0-11.72786-26.58551c-14.45272-20.96788-34.99472-28.16729-42.51347-30.38345" transform="translate(-159.72949 -281.26416)"/><text class="cls-5" transform="translate(2179.46948 90.76645) scale(1.00538 1)">Pixel<tspan class="cls-3"><tspan x="70.87261" y="60">L=3</tspan></tspan></text><text x="-159.72949" y="-281.26416"/><path class="cls-8" d="M2868.2343,1228.29062" transform="translate(-159.72949 -281.26416)"/><path class="cls-11" d="M2576.22537,980.82166" transform="translate(-159.72949 -281.26416)"/><path class="cls-11" d="M2322.993,980.82166" transform="translate(-159.72949 -281.26416)"/><text class="cls-12" x="-159.72949" y="-281.26416"><tspan x="2104.09692" y="791.0575">Material</tspan><tspan x="2104.09692" y="911.0575">Signature</tspan></text><polyline class="cls-13" points="1770.763 817.343 1964.935 817.343 1991.985 817.343"/><path class="cls-13" d="M2145.24664,1045.01155a35.74049,35.74049,0,0,1-6.32892-6.37378c-.18616-.25116-.35926-.50482-.538-.75757l-2.88678-2.99805.11267,128.22535,61.62171-64.11268Z" transform="translate(-159.72949 -281.26416)"/></svg>