<svg xmlns="http://www.w3.org/2000/svg" viewBox="0 0 3011.34112 1500"><defs><style>.cls-1{fill:#fff;}.cls-11,.cls-13,.cls-17,.cls-2,.cls-5,.cls-7,.cls-9{fill:none;}.cls-15,.cls-16,.cls-17,.cls-18,.cls-2,.cls-3,.cls-5,.cls-6{stroke:#000;}.cls-10,.cls-11,.cls-13,.cls-14,.cls-15,.cls-16,.cls-17,.cls-18,.cls-19,.cls-2,.cls-20,.cls-21,.cls-22,.cls-23,.cls-3,.cls-5,.cls-6,.cls-7,.cls-8,.cls-9{stroke-miterlimit:10;}.cls-2{stroke-width:15px;}.cls-10,.cls-20,.cls-3,.cls-6{font-size:70px;}.cls-10,.cls-23,.cls-3,.cls-6,.cls-8{stroke-width:3px;}.cls-10,.cls-15,.cls-16,.cls-18,.cls-20,.cls-23,.cls-3,.cls-6,.cls-8{font-family:AdobeMingStd-Light-B5pc-H, Adobe Ming Std;}.cls-18,.cls-4{font-size:50px;}.cls-12,.cls-6{fill:blue;}.cls-13,.cls-7,.cls-8{stroke:blue;}.cls-11,.cls-13,.cls-14,.cls-17,.cls-19,.cls-7,.cls-9{stroke-width:20px;}.cls-23,.cls-8{font-size:60px;}.cls-10,.cls-9{stroke:#f7931e;}.cls-10{fill:#f7931e;}.cls-11,.cls-14{stroke:#f0f;}.cls-13{stroke-dasharray:42.70774 42.70774;}.cls-14{fill:#f0f;}.cls-15,.cls-16{font-size:150px;}.cls-15,.cls-20,.cls-21,.cls-22{stroke-width:5px;}.cls-16{stroke-width:4px;}.cls-18{stroke-width:2px;}.cls-19,.cls-23{fill:#ed1c24;}.cls-19,.cls-20,.cls-21,.cls-22,.cls-23{stroke:#ed1c24;}.cls-22{fill:red;}</style></defs><g id="圖層_2" data-name="圖層 2"><rect class="cls-1" width="3003" height="1500"/></g><g id="圖層_1" data-name="圖層 1"><path d="M270.96368,707.20056c375.23291.00025,790.65729.01715,872.03632,1.30451v732.66217l-872.03632-1.93348V707.20056m-15-15v762l902.03633,2v-762c20.63049-2-440.70294-2-902.03633-2Z"/><path class="cls-2" d="M240.4637,811.70058"/><path class="cls-2" d="M181.4637,773.70058a102.28019,102.28019,0,0,1,16-35c19.71747-27.60434,47.74237-37.08242,58-40"/><path class="cls-2" d="M197.4637,1373.70058c.48047,5.93328,3.15234,30.56219,24,50a77.23039,77.23039,0,0,0,44,20"/><text/><text class="cls-3" transform="translate(68.83673 1091.72986) scale(1.00538 1)">Band<tspan class="cls-4"><tspan x="0" y="60">M=224</tspan></tspan></text><path d="M257.63036,698.36724a1.5009,1.5009,0,0,0,0-3,1.5009,1.5009,0,0,0,0,3Z"/><path class="cls-5" d="M257.63036,696.86724"/><path class="cls-2" d="M265.57864,698.40941a102.28035,102.28035,0,0,1,16-35c19.71747-27.60434,47.74237-37.08241,58-40"/><path class="cls-2" d="M1837.4637,708.70058"/><path class="cls-2" d="M1740.4637,652.70058"/><path class="cls-2" d="M1149.9637,699.20058a82.81084,82.81084,0,0,0-18.46164-31.16921c-22.751-24.583-55.08763-33.0237-66.92342-35.622"/><text class="cls-6" transform="translate(648.08698 550.94055) scale(1.00538 1)">Pixel<tspan class="cls-4"><tspan x="-13.89983" y="60">L=10000</tspan></tspan></text><text/><rect class="cls-7" x="279" y="1102" width="451" height="327"/><text class="cls-8" transform="translate(339.29718 1291.20056)">Missing Data</text><text/><polygon class="cls-9" points="1135 718.201 280.964 716.401 278.964 1083.201 1133 1085.001 1135 718.201"/><text class="cls-10" transform="translate(515.83472 873.766)">Step2取<tspan x="0" y="84">Y_Omega2</tspan></text><text/><path d="M1782.80579,716.9292v731.06116l-251.75855.89355V716.937c86.79541,0,173.15552-.00036,251.75855-.00781m15-15.00147c-87.00953.00928-184.38391.00928-281.75855.00928v762.00012l281.75855-1V701.92773Z"/><path class="cls-2" d="M1423.54723,813.43709"/><path class="cls-2" d="M1445.54723,783.43709a102.28035,102.28035,0,0,1,16-35c19.71747-27.60434,47.74237-37.08241,58-40"/><path class="cls-2" d="M1450.54723,1388.43709c.48047,5.93329,3.15234,30.56219,24,50a77.23034,77.23034,0,0,0,44,20"/><text/><text class="cls-3" transform="translate(1309.92029 1085.46637) scale(1.00538 1)">Band<tspan class="cls-4"><tspan x="0" y="60">M=224</tspan></tspan></text><path class="cls-2" d="M1520.66217,710.14593a100.67029,100.67029,0,0,1,8.46351-27.14964c10.42994-21.4128,25.25425-28.765,30.68023-31.02816"/><path class="cls-2" d="M1790.04723,705.93709a79.09232,79.09232,0,0,0-11.72785-26.58552c-14.45273-20.96787-34.99473-28.16729-42.51347-30.38344"/><text class="cls-6" transform="translate(1572.17053 559.67709) scale(1.00538 1)">Pixel<tspan class="cls-4"><tspan x="36.39938" y="60">L=3</tspan></tspan></text><text/><path class="cls-11" d="M3068.54723,1323.93709"/><line class="cls-12" x1="1528" y1="1118" x2="1781.5383" y2="1118.46813"/><line class="cls-7" x1="1528" y1="1118" x2="1548" y2="1118.03699"/><line class="cls-13" x1="1590.70764" y1="1118.11572" x2="1740.18445" y2="1118.39172"/><line class="cls-7" x1="1761.53833" y1="1118.43115" x2="1781.53833" y2="1118.46814"/><rect class="cls-9" x="1539.80591" y="726.96813" width="232" height="374.03187"/><path class="cls-14" d="M1135.69323,1275.46813"/><path class="cls-14" d="M1074.38513,1275.46813"/><path class="cls-14" d="M1910.30591,1253.46813"/><path class="cls-14" d="M1135.80591,1341.96813"/><path class="cls-14" d="M1402.42761,1293.85546"/><text class="cls-15"><tspan x="1189.625" y="1137.375">=</tspan></text><text class="cls-16" transform="translate(1823.54199 1116.20801)">x</text><rect class="cls-17" x="2189" y="924" width="773" height="296"/><text/><path class="cls-2" d="M2139.48766,970a67.90214,67.90214,0,0,1,10.62212-23.23588c13.09007-18.326,31.69531-24.61835,38.50516-26.55528"/><path class="cls-2" d="M2133.2922,1168c.36772,4.541,2.41263,23.39068,18.36832,38.26735a59.10807,59.10807,0,0,0,33.67527,15.30694"/><text class="cls-6" transform="translate(2527.54846 797.77524) scale(1.00538 1)">Pixel<tspan class="cls-4"><tspan x="-13.89983" y="60">L=10000</tspan></tspan></text><path class="cls-2" d="M2188.68259,929.92785a100.67029,100.67029,0,0,1,8.46351-27.14964c10.42994-21.41279,25.25425-28.765,30.68022-31.02816"/><path class="cls-2" d="M2961.53281,929.21312A79.09232,79.09232,0,0,0,2949.805,902.6276c-14.45273-20.96787-34.99473-28.16729-42.51348-30.38345"/><text class="cls-18" transform="translate(1931.85156 1054.70801)">Proportion<tspan x="73.6748" y="60">N=3</tspan></text><text/><line class="cls-19" x1="413.54167" y1="1077.75781" x2="413.54167" y2="726.96813"/><line class="cls-19" x1="1586" y1="742.93709" x2="1586" y2="1083.79645"/><line class="cls-19" x1="1656" y1="741" x2="1656" y2="1083"/><line class="cls-19" x1="1723" y1="744" x2="1723" y2="1083"/><line class="cls-19" x1="2328" y1="945" x2="2328" y2="1205"/><text class="cls-20" transform="translate(1825.84277 1357.48926)">Barycentric Coordinate of Y_Omega2<tspan x="87.56934" y="84" xml:space="preserve"> wrt the simplex conv{a1, a2,a3}</tspan></text><line class="cls-21" x1="2328" y1="1246.86072" x2="2328" y2="1297.68005"/><path class="cls-22" d="M2328.1853,1295.4917l13.32544-13.9917H2314.5l10.76465,11.30322C2326.27734,1293.635,2327.261,1294.56567,2328.1853,1295.4917Z"/><text class="cls-23" transform="translate(1551.13916 691.10645)">a1 a2 a3</text><text class="cls-15" transform="translate(673.67578 376.2085)">Y</text><text/><text class="cls-15" transform="translate(1189.88428 385.2915)">=</text><text class="cls-15" transform="translate(1585.95068 383.5415)">A</text><text class="cls-15" transform="translate(1998.2832 384.375)">X</text><text class="cls-15" transform="translate(2629.43262 383.9585)">S</text></g></svg>