<svg id="圖層_1" data-name="圖層 1" xmlns="http://www.w3.org/2000/svg" viewBox="0 0 3000.03936 1391.52376"><defs><style>.cls-1,.cls-10,.cls-12,.cls-16,.cls-4,.cls-6,.cls-8{fill:none;}.cls-1,.cls-14,.cls-15,.cls-16,.cls-17,.cls-2,.cls-4,.cls-5{stroke:#000;}.cls-1,.cls-10,.cls-12,.cls-13,.cls-14,.cls-15,.cls-16,.cls-17,.cls-18,.cls-19,.cls-2,.cls-20,.cls-21,.cls-22,.cls-4,.cls-5,.cls-6,.cls-7,.cls-8,.cls-9{stroke-miterlimit:10;}.cls-1{stroke-width:15px;}.cls-19,.cls-2,.cls-5,.cls-9{font-size:70px;}.cls-2,.cls-22,.cls-5,.cls-7,.cls-9{stroke-width:3px;}.cls-14,.cls-15,.cls-17,.cls-19,.cls-2,.cls-22,.cls-5,.cls-7,.cls-9{font-family:AdobeMingStd-Light-B5pc-H, Adobe Ming Std;}.cls-17,.cls-3{font-size:50px;}.cls-11,.cls-5{fill:blue;}.cls-12,.cls-6,.cls-7{stroke:blue;}.cls-10,.cls-12,.cls-13,.cls-16,.cls-18,.cls-6,.cls-8{stroke-width:20px;}.cls-22,.cls-7{font-size:60px;}.cls-8,.cls-9{stroke:#f7931e;}.cls-9{fill:#f7931e;}.cls-10,.cls-13{stroke:#f0f;}.cls-12{stroke-dasharray:42.70774 42.70774;}.cls-13{fill:#f0f;}.cls-14,.cls-15{font-size:150px;}.cls-14,.cls-19,.cls-20,.cls-21{stroke-width:5px;}.cls-15{stroke-width:4px;}.cls-17{stroke-width:2px;}.cls-18,.cls-22{fill:#ed1c24;}.cls-18,.cls-19,.cls-20,.cls-21,.cls-22{stroke:#ed1c24;}.cls-21{fill:red;}</style></defs><path d="M270.96368,707.20056c375.23291.00025,790.65729.01715,872.03632,1.30451v732.66217l-872.03632-1.93348V707.20056m-15-15v762l902.03633,2v-762c20.63049-2-440.70294-2-902.03633-2Z" transform="translate(-11.30176 -74.37012)"/><path class="cls-1" d="M240.4637,811.70058" transform="translate(-11.30176 -74.37012)"/><path class="cls-1" d="M181.4637,773.70058a102.28019,102.28019,0,0,1,16-35c19.71747-27.60434,47.74237-37.08242,58-40" transform="translate(-11.30176 -74.37012)"/><path class="cls-1" d="M197.4637,1373.70058c.48047,5.93328,3.15234,30.56219,24,50a77.23039,77.23039,0,0,0,44,20" transform="translate(-11.30176 -74.37012)"/><text x="-11.30176" y="-74.37012"/><text class="cls-2" transform="translate(57.53497 1017.35974) scale(1.00538 1)">Band<tspan class="cls-3"><tspan x="0" y="60">M=224</tspan></tspan></text><path d="M257.63036,698.36724a1.5009,1.5009,0,0,0,0-3,1.5009,1.5009,0,0,0,0,3Z" transform="translate(-11.30176 -74.37012)"/><path class="cls-4" d="M257.63036,696.86724" transform="translate(-11.30176 -74.37012)"/><path class="cls-1" d="M265.57864,698.40941a102.28035,102.28035,0,0,1,16-35c19.71747-27.60434,47.74237-37.08241,58-40" transform="translate(-11.30176 -74.37012)"/><path class="cls-1" d="M1837.4637,708.70058" transform="translate(-11.30176 -74.37012)"/><path class="cls-1" d="M1740.4637,652.70058" transform="translate(-11.30176 -74.37012)"/><path class="cls-1" d="M1149.9637,699.20058a82.81084,82.81084,0,0,0-18.46164-31.16921c-22.751-24.583-55.08763-33.0237-66.92342-35.622" transform="translate(-11.30176 -74.37012)"/><text class="cls-5" transform="translate(636.78522 476.57043) scale(1.00538 1)">Pixel<tspan class="cls-3"><tspan x="-13.89983" y="60">L=10000</tspan></tspan></text><text x="-11.30176" y="-74.37012"/><rect class="cls-6" x="267.69824" y="1027.62988" width="451" height="327"/><text class="cls-7" transform="translate(327.99542 1216.83044)">Missing Data</text><text x="-11.30176" y="-74.37012"/><polygon class="cls-8" points="1123.698 643.83 269.662 642.03 267.662 1008.83 1121.698 1010.63 1123.698 643.83"/><text class="cls-9" transform="translate(504.53296 799.39588)">Step2取<tspan x="0" y="84">Y_Omega2</tspan></text><text x="-11.30176" y="-74.37012"/><path d="M1782.80579,716.9292v731.06116l-251.75855.89355V716.937c86.79541,0,173.15552-.00036,251.75855-.00781m15-15.00147c-87.00953.00928-184.38391.00928-281.75855.00928v762.00012l281.75855-1V701.92773Z" transform="translate(-11.30176 -74.37012)"/><path class="cls-1" d="M1423.54723,813.43709" transform="translate(-11.30176 -74.37012)"/><path class="cls-1" d="M1445.54723,783.43709a102.28035,102.28035,0,0,1,16-35c19.71747-27.60434,47.74237-37.08241,58-40" transform="translate(-11.30176 -74.37012)"/><path class="cls-1" d="M1450.54723,1388.43709c.48047,5.93329,3.15234,30.56219,24,50a77.23034,77.23034,0,0,0,44,20" transform="translate(-11.30176 -74.37012)"/><text x="-11.30176" y="-74.37012"/><text class="cls-2" transform="translate(1298.61853 1011.09625) scale(1.00538 1)">Band<tspan class="cls-3"><tspan x="0" y="60">M=224</tspan></tspan></text><path class="cls-1" d="M1520.66217,710.14593a100.67029,100.67029,0,0,1,8.46351-27.14964c10.42994-21.4128,25.25425-28.765,30.68023-31.02816" transform="translate(-11.30176 -74.37012)"/><path class="cls-1" d="M1790.04723,705.93709a79.09232,79.09232,0,0,0-11.72785-26.58552c-14.45273-20.96787-34.99473-28.16729-42.51347-30.38344" transform="translate(-11.30176 -74.37012)"/><text class="cls-5" transform="translate(1560.86877 485.30698) scale(1.00538 1)">Pixel<tspan class="cls-3"><tspan x="36.39938" y="60">L=3</tspan></tspan></text><text x="-11.30176" y="-74.37012"/><path class="cls-10" d="M3068.54723,1323.93709" transform="translate(-11.30176 -74.37012)"/><line class="cls-11" x1="1516.69824" y1="1043.62988" x2="1770.23654" y2="1044.09801"/><line class="cls-6" x1="1516.69824" y1="1043.62988" x2="1536.69824" y2="1043.66687"/><line class="cls-12" x1="1579.40588" y1="1043.74561" x2="1728.88269" y2="1044.02161"/><line class="cls-6" x1="1750.23657" y1="1044.06104" x2="1770.23657" y2="1044.09802"/><rect class="cls-8" x="1528.50415" y="652.59801" width="232" height="374.03187"/><path class="cls-13" d="M1135.69323,1275.46813" transform="translate(-11.30176 -74.37012)"/><path class="cls-13" d="M1074.38513,1275.46813" transform="translate(-11.30176 -74.37012)"/><path class="cls-13" d="M1910.30591,1253.46813" transform="translate(-11.30176 -74.37012)"/><path class="cls-13" d="M1135.80591,1341.96813" transform="translate(-11.30176 -74.37012)"/><path class="cls-13" d="M1402.42761,1293.85546" transform="translate(-11.30176 -74.37012)"/><text class="cls-14" x="-11.30176" y="-74.37012"><tspan x="1178.32324" y="1063.00488">=</tspan></text><text class="cls-15" transform="translate(1812.24023 1041.83789)">x</text><rect class="cls-16" x="2177.69824" y="849.62988" width="773" height="296"/><text x="-11.30176" y="-74.37012"/><path class="cls-1" d="M2139.48766,970a67.90214,67.90214,0,0,1,10.62212-23.23588c13.09007-18.326,31.69531-24.61835,38.50516-26.55528" transform="translate(-11.30176 -74.37012)"/><path class="cls-1" d="M2133.2922,1168c.36772,4.541,2.41263,23.39068,18.36832,38.26735a59.10807,59.10807,0,0,0,33.67527,15.30694" transform="translate(-11.30176 -74.37012)"/><text class="cls-5" transform="translate(2516.2467 723.40512) scale(1.00538 1)">Pixel<tspan class="cls-3"><tspan x="-13.89983" y="60">L=10000</tspan></tspan></text><path class="cls-1" d="M2188.68259,929.92785a100.67029,100.67029,0,0,1,8.46351-27.14964c10.42994-21.41279,25.25425-28.765,30.68022-31.02816" transform="translate(-11.30176 -74.37012)"/><path class="cls-1" d="M2961.53281,929.21312A79.09232,79.09232,0,0,0,2949.805,902.6276c-14.45273-20.96787-34.99473-28.16729-42.51348-30.38345" transform="translate(-11.30176 -74.37012)"/><text class="cls-17" transform="translate(1920.5498 980.33789)">Proportion<tspan x="73.6748" y="60">N=3</tspan></text><text x="-11.30176" y="-74.37012"/><line class="cls-18" x1="402.23991" y1="1003.3877" x2="402.23991" y2="652.59801"/><line class="cls-18" x1="1574.69824" y1="668.56697" x2="1574.69824" y2="1009.42633"/><line class="cls-18" x1="1644.69824" y1="666.62988" x2="1644.69824" y2="1008.62988"/><line class="cls-18" x1="1711.69824" y1="669.62988" x2="1711.69824" y2="1008.62988"/><line class="cls-18" x1="2316.69824" y1="870.62988" x2="2316.69824" y2="1130.62988"/><text class="cls-19" transform="translate(1814.54102 1283.11914)">Barycentric Coordinate of Y_Omega2<tspan x="87.56934" y="84" xml:space="preserve"> wrt the simplex conv{a1, a2,a3}</tspan></text><line class="cls-20" x1="2316.69824" y1="1172.4906" x2="2316.69824" y2="1223.30994"/><path class="cls-21" d="M2328.1853,1295.4917l13.32544-13.9917H2314.5l10.76465,11.30322C2326.27734,1293.635,2327.261,1294.56567,2328.1853,1295.4917Z" transform="translate(-11.30176 -74.37012)"/><text class="cls-22" transform="translate(1539.8374 616.73633)">a1 a2 a3</text><text class="cls-14" transform="translate(662.37402 301.83838)">Y</text><text x="-11.30176" y="-74.37012"/><text class="cls-14" transform="translate(1178.58252 310.92139)">=</text><text class="cls-14" transform="translate(1574.64893 309.17139)">A</text><text class="cls-14" transform="translate(1986.98145 310.00488)">X</text><text class="cls-14" transform="translate(2618.13086 309.58838)">S</text></svg>